<svg width="26" height="24" viewBox="0 0 26 24" fill="none" xmlns="http://www.w3.org/2000/svg">
<path d="M23.9776 16.6564C23.9747 16.6536 23.9735 16.6497 23.9701 16.647C23.9666 16.6442 23.9495 16.632 23.9396 16.6241C23.8655 16.5643 23.7895 16.5078 23.7117 16.4527C23.6781 16.429 23.6446 16.4061 23.6117 16.3822C23.5346 16.3309 23.4552 16.2819 23.3746 16.2351C23.3366 16.2133 23.2991 16.1913 23.2606 16.1704C23.1808 16.1263 23.0991 16.0851 23.0158 16.0466C22.9741 16.027 22.9322 16.0077 22.8897 15.9896C22.8077 15.9541 22.7251 15.9205 22.6398 15.8893C22.5896 15.872 22.5439 15.856 22.4953 15.8397C22.4143 15.813 22.3333 15.7874 22.2507 15.7649C22.1928 15.7491 22.1342 15.7365 22.0763 15.7231C22.0003 15.7053 21.9264 15.6876 21.8479 15.6735C21.7694 15.6596 21.6939 15.6506 21.6168 15.6408C21.5548 15.6329 21.4939 15.6226 21.4314 15.6171C21.2888 15.604 21.1449 15.5965 21.0005 15.5965C20.8561 15.5965 20.7119 15.604 20.5696 15.6171C20.5071 15.6226 20.446 15.6329 20.384 15.6408C20.3071 15.6506 20.2295 15.66 20.153 15.6735C20.0766 15.6872 20.0032 15.7053 19.9247 15.7231C19.8665 15.7365 19.8082 15.7491 19.75 15.7649C19.6677 15.7874 19.5866 15.8118 19.5056 15.8397C19.4766 15.8496 19.4466 15.8566 19.4182 15.8669C19.4837 15.8276 19.5477 15.7865 19.6111 15.7444C19.6452 15.7216 19.6786 15.6978 19.7111 15.6739C19.7892 15.619 19.8652 15.5623 19.9391 15.5027C19.9491 15.4948 19.9601 15.4878 19.9695 15.4798C19.9791 15.4719 19.9741 15.4732 19.9771 15.4704C20.9446 14.6763 21.4994 13.5314 21.4994 12.3284C21.4994 11.1254 20.9446 9.98047 19.9771 9.1863C19.9741 9.18352 19.9732 9.17988 19.9695 9.17711C19.9661 9.17411 19.9491 9.16215 19.9391 9.15402C19.8652 9.0944 19.7892 9.03798 19.7111 8.98284C19.6777 8.9589 19.6441 8.93603 19.6111 8.91231C19.5342 8.86102 19.4546 8.81186 19.3743 8.76527C19.3363 8.74326 19.2987 8.72125 19.2601 8.7003C19.1802 8.65649 19.0985 8.61524 19.0152 8.57656C18.9738 8.5569 18.9317 8.53788 18.8893 8.51971C18.8072 8.48423 18.7248 8.45047 18.6392 8.41926C18.5893 8.40195 18.5433 8.38614 18.4948 8.36968C18.4138 8.34318 18.3328 8.31753 18.2504 8.29509C18.1922 8.27928 18.1339 8.26667 18.0758 8.25299C17.9998 8.23525 17.9259 8.21751 17.8474 8.20362C17.7689 8.18952 17.6933 8.18075 17.6165 8.17092C17.5544 8.16302 17.4933 8.15276 17.4309 8.14699C17.2894 8.13395 17.1455 8.12647 17.0011 8.12647C16.8564 8.12647 16.7125 8.13395 16.5701 8.14699C16.5074 8.15276 16.4466 8.16302 16.3845 8.17092C16.3076 8.18075 16.2301 8.18994 16.1536 8.20362C16.0772 8.21709 16.0035 8.23525 15.925 8.25299C15.8671 8.26667 15.8085 8.27928 15.7506 8.29509C15.6682 8.31753 15.5872 8.34168 15.5062 8.36968C15.4561 8.38614 15.4092 8.40195 15.3611 8.41969C15.2771 8.45047 15.1947 8.48423 15.1112 8.51971C15.0686 8.53788 15.0263 8.5569 14.9842 8.57656C14.9013 8.61588 14.8196 8.65713 14.7398 8.7003C14.7013 8.72125 14.6638 8.74326 14.6258 8.76527C14.5453 8.81186 14.4658 8.86102 14.3887 8.91231C14.3548 8.93518 14.3212 8.9589 14.2887 8.98284C14.2109 9.03798 14.1349 9.0944 14.0608 9.15402C14.0509 9.16215 14.0399 9.16898 14.0303 9.17711C14.021 9.18501 14.0258 9.18352 14.0228 9.1863C13.604 9.53316 13.2577 9.94948 13.0014 10.4143C12.965 10.3489 12.9266 10.2844 12.887 10.2209C12.8646 10.185 12.8414 10.1499 12.8174 10.1145C12.7675 10.0392 12.7174 9.96508 12.66 9.89327C12.6355 9.86143 12.6101 9.83023 12.5844 9.79988C12.5256 9.727 12.465 9.65605 12.4011 9.58702C12.3927 9.57761 12.3851 9.56735 12.3767 9.55838C12.3682 9.54961 12.37 9.55474 12.3675 9.55197C12.1299 9.30085 11.8615 9.07687 11.5677 8.88474L11.6116 8.895C11.6693 8.91081 11.7276 8.92342 11.7858 8.9371C11.8617 8.9542 11.9357 8.97258 12.0146 8.98647C12.0936 9.00058 12.1677 9.00934 12.2446 9.01917C12.3066 9.02708 12.3682 9.03733 12.4311 9.04311C12.5735 9.05614 12.7174 9.06362 12.862 9.06362C13.0065 9.06362 13.1499 9.05614 13.293 9.04311C13.3559 9.03733 13.417 9.02708 13.4795 9.01917C13.5559 9.00934 13.6328 9.00015 13.7088 8.98647C13.7848 8.97301 13.8619 8.9542 13.9379 8.9371C13.9965 8.92342 14.0544 8.91081 14.1118 8.895C14.1949 8.87256 14.2759 8.84841 14.3562 8.82041C14.4063 8.80396 14.4562 8.78814 14.5018 8.7704C14.5858 8.73963 14.6684 8.70586 14.7517 8.67038C14.7942 8.65222 14.8364 8.63319 14.8782 8.61353C14.9618 8.57421 15.0432 8.53317 15.1231 8.48936C15.1618 8.46885 15.1993 8.44726 15.2366 8.42525C15.3172 8.37866 15.3966 8.33207 15.4742 8.27778C15.5083 8.25491 15.5417 8.23119 15.5742 8.20726C15.6518 8.15212 15.7282 8.0957 15.8021 8.03607L15.8325 8.01299C15.8355 8.01021 15.8371 8.00657 15.8401 8.0038C16.8077 7.20962 17.3624 6.06474 17.3624 4.86172C17.3624 3.65871 16.8077 2.51382 15.8401 1.71965C15.8371 1.71687 15.8355 1.71302 15.8325 1.71024L15.8012 1.68374C15.727 1.6239 15.6511 1.56748 15.5733 1.51234C15.5396 1.48862 15.5062 1.46575 15.4733 1.44181C15.3954 1.39052 15.3163 1.34137 15.2357 1.29478C15.1982 1.27276 15.1602 1.25096 15.1222 1.22981C15.0416 1.18599 14.9599 1.14475 14.8773 1.10606C14.8357 1.08662 14.7933 1.06738 14.7512 1.04922C14.6693 1.01374 14.5867 0.980185 14.5013 0.948768C14.4512 0.931457 14.4052 0.915642 14.3569 0.899399C14.2759 0.872685 14.1949 0.847038 14.1118 0.824598C14.0544 0.808783 13.9958 0.796174 13.9374 0.78271C13.8619 0.764971 13.7873 0.747232 13.7095 0.733127C13.6314 0.719235 13.5555 0.710259 13.4779 0.700428C13.4163 0.692521 13.3555 0.682262 13.293 0.676706C13.1515 0.664096 13.0065 0.656616 12.862 0.656616C12.7174 0.656616 12.5735 0.664096 12.4311 0.677133C12.3682 0.68269 12.3075 0.692948 12.2455 0.700856C12.1682 0.710687 12.0906 0.72009 12.0146 0.733555C11.9386 0.747232 11.8617 0.765398 11.7862 0.783137C11.7276 0.796601 11.6693 0.809211 11.6116 0.825026C11.5288 0.847466 11.4482 0.87183 11.3672 0.899827C11.3173 0.916069 11.2702 0.932098 11.2223 0.949837C11.1383 0.980612 11.0557 1.01417 10.9722 1.04964C10.9298 1.06781 10.8877 1.08704 10.8459 1.10671C10.7628 1.14582 10.6813 1.18706 10.6012 1.23045C10.5628 1.25139 10.5248 1.2734 10.4872 1.2952C10.4069 1.34201 10.3273 1.39095 10.2504 1.44224C10.2158 1.46511 10.1829 1.48905 10.1504 1.51277C10.0723 1.56791 9.9959 1.62433 9.92244 1.68417C9.91237 1.69208 9.90139 1.69913 9.89132 1.70704C9.88148 1.71495 9.88743 1.71366 9.88445 1.71644C8.91686 2.51062 8.36213 3.65529 8.36213 4.85852C8.36213 6.06153 8.91686 7.2062 9.88445 8.00038C9.88743 8.00337 9.88834 8.007 9.89132 8.00978C9.89429 8.01256 9.91237 8.02474 9.92244 8.03265C9.9959 8.09249 10.0723 8.14891 10.1504 8.20405C10.1838 8.22777 10.2167 8.25064 10.2504 8.27458C10.2653 8.28483 10.2794 8.29552 10.2943 8.30535C8.61455 7.83133 6.79289 8.31732 5.63489 9.54855C5.63238 9.55154 5.62849 9.55239 5.62597 9.55517C5.62345 9.55795 5.60995 9.57441 5.60148 9.5836C5.5374 9.65284 5.47699 9.72379 5.41794 9.79646C5.39254 9.82788 5.36805 9.85908 5.34242 9.88985C5.28704 9.9623 5.23509 10.036 5.18451 10.1117C5.16094 10.1467 5.13806 10.1818 5.11609 10.2173C5.06894 10.2923 5.025 10.3684 4.98312 10.4459C4.96207 10.4853 4.94147 10.5248 4.92202 10.5646C4.88403 10.6406 4.8481 10.7176 4.81515 10.7979C4.79615 10.8447 4.77899 10.8881 4.76159 10.9339C4.73299 11.0091 4.70553 11.0847 4.6815 11.1617C4.66456 11.2158 4.65106 11.27 4.63664 11.3241C4.6181 11.3955 4.59865 11.4643 4.58355 11.538C4.56867 11.6118 4.55906 11.6812 4.54853 11.7528C4.54007 11.8105 4.52908 11.868 4.52313 11.9268C4.50917 12.0604 4.50116 12.1944 4.50116 12.3292C4.50116 12.4643 4.50917 12.5983 4.52313 12.7319C4.52908 12.7906 4.54007 12.8481 4.54853 12.9058C4.55906 12.9774 4.56913 13.0492 4.58355 13.1206C4.59796 13.1922 4.6181 13.2608 4.63664 13.3346C4.65106 13.3886 4.66456 13.4429 4.6815 13.497C4.70553 13.5739 4.73161 13.6496 4.76159 13.7248C4.77899 13.7716 4.79615 13.8182 4.81515 13.8612C4.8481 13.9392 4.88403 14.0161 4.92156 14.0945C4.94147 14.1343 4.96207 14.174 4.98312 14.2131C5.025 14.2907 5.06894 14.3668 5.11609 14.442C5.13806 14.4775 5.16094 14.5123 5.18451 14.5474C5.2344 14.6231 5.28452 14.6968 5.34242 14.7692C5.36691 14.8009 5.39254 14.8323 5.41794 14.8626C5.47699 14.9355 5.5374 15.0065 5.60148 15.0755C5.60995 15.0849 5.6175 15.0952 5.62597 15.1039C5.63444 15.1129 5.63283 15.1082 5.63604 15.111C5.91272 15.4033 6.23151 15.6585 6.58326 15.8692C6.55488 15.859 6.5249 15.8519 6.49584 15.8421C6.41482 15.8154 6.33381 15.7897 6.25142 15.7673C6.19329 15.7515 6.13494 15.7389 6.07681 15.7254C6.00083 15.7077 5.92691 15.6899 5.84841 15.6758C5.76992 15.6619 5.6944 15.653 5.6175 15.6431C5.55548 15.6352 5.49438 15.625 5.4319 15.6194C5.29093 15.604 5.14698 15.5965 5.00258 15.5965C4.85794 15.5965 4.71399 15.604 4.57165 15.6171C4.50917 15.6226 4.44807 15.6329 4.38605 15.6408C4.30915 15.6506 4.23157 15.66 4.15514 15.6735C4.0787 15.6872 4.00524 15.7053 3.92674 15.7231C3.86861 15.7365 3.81026 15.7491 3.75213 15.7649C3.66974 15.7874 3.58873 15.8118 3.50771 15.8397C3.45782 15.856 3.41068 15.872 3.36285 15.8898C3.27886 15.9205 3.19625 15.9541 3.11271 15.9896C3.07038 16.0077 3.02781 16.027 2.9857 16.0466C2.90286 16.0857 2.82139 16.127 2.74129 16.1704C2.70284 16.1913 2.66531 16.2133 2.62732 16.2351C2.54676 16.2819 2.46735 16.3285 2.39046 16.3822C2.35636 16.405 2.32295 16.429 2.29045 16.4527C2.21241 16.5078 2.13643 16.5643 2.06251 16.6241C2.05244 16.632 2.04146 16.6391 2.03185 16.647C2.02246 16.6549 2.0275 16.6536 2.02452 16.6564C1.05671 17.4505 0.502197 18.5954 0.502197 19.7984C0.502197 21.0015 1.05671 22.1461 2.02452 22.9405C2.0275 22.9433 2.02841 22.9469 2.03185 22.9497C2.03551 22.9525 2.05244 22.9647 2.06251 22.9726C2.13643 23.0324 2.21241 23.0888 2.29045 23.144C2.32386 23.1677 2.35727 23.1906 2.39046 23.2145C2.46781 23.2662 2.54676 23.3149 2.62778 23.362C2.66531 23.384 2.70284 23.4053 2.74083 23.4259C2.82139 23.4699 2.90286 23.5109 2.9857 23.5502C3.02781 23.5697 3.07038 23.5889 3.11271 23.6075C3.19419 23.6426 3.2768 23.6761 3.36285 23.7071C3.41274 23.7249 3.4592 23.7407 3.50817 23.7569C3.58873 23.7836 3.66974 23.8093 3.75213 23.8317C3.80957 23.8475 3.86816 23.8601 3.92605 23.8736C4.00226 23.8909 4.07618 23.9091 4.15514 23.9232C4.23409 23.9373 4.3087 23.9461 4.38513 23.9559C4.44715 23.9638 4.50848 23.9741 4.57165 23.9796C4.71445 23.9926 4.85794 24.0001 5.00258 24.0001C5.14698 24.0001 5.29047 23.9926 5.4335 23.9796C5.49644 23.9741 5.558 23.9638 5.62002 23.9559C5.69646 23.9461 5.77335 23.9366 5.85002 23.9232C5.92645 23.9097 6.00289 23.8909 6.07887 23.8736C6.13677 23.8601 6.19535 23.8475 6.2528 23.8317C6.33541 23.8093 6.41642 23.7849 6.49675 23.7569C6.54687 23.7407 6.59676 23.7249 6.6423 23.7071C6.72629 23.6761 6.80891 23.6426 6.89221 23.6071C6.93477 23.5889 6.97734 23.5697 7.01922 23.5502C7.10229 23.5109 7.18377 23.4699 7.26432 23.4259C7.30231 23.4053 7.33961 23.384 7.37715 23.362C7.45816 23.3154 7.53711 23.2662 7.61469 23.2145C7.64879 23.1916 7.68221 23.1677 7.7147 23.144C7.79274 23.0888 7.86872 23.0324 7.94264 22.9726C7.95271 22.9647 7.96369 22.9576 7.97308 22.9497C7.98269 22.9418 7.97765 22.9433 7.98063 22.9405C8.3992 22.5943 8.74568 22.1788 9.002 21.7148C9.03861 21.7807 9.07706 21.8446 9.11688 21.9087C9.13908 21.9442 9.16196 21.9792 9.18554 22.014C9.23543 22.0897 9.28554 22.1634 9.34344 22.2359C9.36793 22.2677 9.39356 22.2989 9.41897 22.3293C9.47801 22.4022 9.53843 22.4731 9.6025 22.5421C9.61097 22.5515 9.61852 22.5618 9.62699 22.5706C9.63546 22.5795 9.63386 22.5748 9.63683 22.5776C10.4875 23.4812 11.7132 23.9993 13.0014 23.9993C14.2896 23.9993 15.5156 23.4812 16.366 22.5776C16.369 22.5748 16.3731 22.574 16.3761 22.5706C16.379 22.5674 16.3921 22.5515 16.4006 22.5421C16.4646 22.4731 16.5251 22.4022 16.5841 22.3293C16.6095 22.2981 16.634 22.2667 16.6596 22.2359C16.715 22.1641 16.767 22.0897 16.8171 22.0147C16.8411 21.9792 16.864 21.9442 16.8864 21.9083C16.926 21.8446 16.9645 21.7802 17.0011 21.7148C17.2576 22.1788 17.6043 22.5945 18.0233 22.9405C18.0263 22.9433 18.0272 22.9469 18.0309 22.9497C18.0343 22.9525 18.0513 22.9647 18.0613 22.9726C18.1353 23.0324 18.2112 23.0888 18.2893 23.144C18.3227 23.1677 18.3563 23.1906 18.3893 23.2145C18.4669 23.2662 18.5458 23.3149 18.6268 23.362C18.6644 23.384 18.7017 23.4053 18.7397 23.4259C18.8202 23.4699 18.9017 23.5109 18.9848 23.5502C19.0266 23.5697 19.0692 23.5889 19.1118 23.6075C19.1932 23.6426 19.2756 23.6761 19.3617 23.7071C19.4116 23.7249 19.4583 23.7407 19.5072 23.7569C19.5876 23.7836 19.6686 23.8093 19.7512 23.8317C19.8086 23.8475 19.8672 23.8601 19.9251 23.8736C20.0011 23.8909 20.075 23.9091 20.154 23.9232C20.2331 23.9373 20.3075 23.9461 20.384 23.9559C20.446 23.9638 20.5075 23.9741 20.5705 23.9796C20.7135 23.9926 20.857 24.0001 21.0014 24.0001C21.146 24.0001 21.2895 23.9926 21.4323 23.9796C21.4955 23.9741 21.5568 23.9638 21.6188 23.9559C21.6953 23.9461 21.7724 23.9366 21.8488 23.9232C21.9253 23.9097 22.0017 23.8909 22.0779 23.8736C22.1358 23.8601 22.1944 23.8475 22.2519 23.8317C22.3342 23.8093 22.4153 23.7849 22.4958 23.7569C22.5457 23.7407 22.5958 23.7249 22.6411 23.7071C22.7251 23.6761 22.8077 23.6426 22.8913 23.6071C22.9336 23.5889 22.9762 23.5697 23.0183 23.5502C23.1011 23.5109 23.1826 23.4699 23.2631 23.4259C23.3011 23.4053 23.3387 23.384 23.3762 23.362C23.4572 23.3154 23.5362 23.2662 23.6135 23.2145C23.6476 23.1916 23.681 23.1677 23.7135 23.144C23.7916 23.0888 23.8675 23.0324 23.9415 22.9726C23.9515 22.9647 23.9625 22.9576 23.9721 22.9497C23.9815 22.9418 23.9765 22.9433 23.9795 22.9405C24.9473 22.1461 25.5018 21.0015 25.5018 19.7984C25.5018 18.5954 24.9473 17.4505 23.9795 16.6564H23.9776ZM18.2893 16.4527C18.2112 16.5078 18.1353 16.5643 18.0613 16.6241C18.0513 16.632 18.0403 16.6391 18.0309 16.647C18.0213 16.6549 18.0263 16.6536 18.0233 16.6564C17.6041 17.003 17.2574 17.4193 17.0011 17.8842C16.9645 17.8188 16.926 17.7544 16.8864 17.691C16.864 17.6549 16.8411 17.62 16.8171 17.5845C16.767 17.5093 16.7171 17.4352 16.6596 17.3631C16.6351 17.3315 16.6095 17.3001 16.5841 17.2697C16.5251 17.1969 16.4646 17.1259 16.4006 17.0569C16.3921 17.0475 16.3845 17.0372 16.3761 17.0284C16.3676 17.0195 16.3697 17.0246 16.3671 17.0218C16.0893 16.7292 15.7698 16.4738 15.4172 16.2631C15.4462 16.2734 15.4762 16.2804 15.5051 16.2903C15.5856 16.317 15.6666 16.3426 15.7492 16.3651C15.8067 16.3809 15.865 16.3935 15.9232 16.407C15.9992 16.4243 16.0731 16.4424 16.152 16.4565C16.231 16.4704 16.3056 16.4794 16.382 16.4892C16.444 16.4971 16.5056 16.5074 16.5685 16.513C16.7116 16.526 16.8551 16.5335 16.9995 16.5335C17.1439 16.5335 17.2874 16.526 17.4304 16.513C17.4933 16.5074 17.5549 16.4971 17.6169 16.4892C17.6933 16.4794 17.7705 16.47 17.8469 16.4565C17.9233 16.4429 17.9998 16.4243 18.0758 16.407C18.1339 16.3935 18.1922 16.3809 18.2499 16.3651C18.3323 16.3426 18.4133 16.3183 18.4939 16.2903C18.5232 16.2804 18.5534 16.2734 18.5817 16.2631C18.5163 16.3024 18.4522 16.3431 18.3888 16.3856C18.3563 16.405 18.3227 16.429 18.2893 16.4527ZM16.4715 20.2022C16.4669 20.2348 16.461 20.2671 16.4555 20.2994C16.4376 20.4095 16.4134 20.5185 16.3829 20.6262C16.3765 20.6495 16.371 20.6728 16.3639 20.6956C16.2822 20.9619 16.1648 21.2173 16.014 21.4558L16.0012 21.4744C15.3359 20.4434 15.3359 19.1532 16.0012 18.1223L16.014 18.1419C16.1648 18.3804 16.2822 18.6358 16.3639 18.9019C16.371 18.9248 16.3765 18.9487 16.3829 18.9716C16.4134 19.0793 16.4376 19.1883 16.4555 19.2983C16.461 19.3306 16.4669 19.3627 16.4715 19.3954C16.5109 19.6634 16.5109 19.9352 16.4715 20.2032V20.2022ZM13.0014 22.1327C12.7254 22.1327 12.5016 22.3417 12.5016 22.5996V23.0292C11.8185 22.9371 11.18 22.6578 10.6674 22.2261C11.7798 20.7743 11.7798 18.8224 10.6674 17.3706C11.18 16.9391 11.8185 16.6596 12.5016 16.5677V16.997C12.5016 17.255 12.7254 17.464 13.0014 17.464C13.2776 17.464 13.5015 17.255 13.5015 16.997V16.5677C14.1846 16.6596 14.8231 16.9391 15.3357 17.3706C14.223 18.8224 14.223 20.7743 15.3357 22.2261C14.8231 22.6578 14.1846 22.9371 13.5015 23.0292V22.5996C13.5015 22.3417 13.2776 22.1327 13.0014 22.1327ZM9.98995 21.4543C9.83937 21.216 9.72174 20.9608 9.64004 20.6948C9.63294 20.6719 9.62745 20.6482 9.62104 20.6251C9.5906 20.5176 9.56658 20.4084 9.5485 20.2983C9.543 20.2663 9.53682 20.234 9.53248 20.2013C9.49311 19.9333 9.49311 19.6617 9.53248 19.3937C9.53682 19.361 9.543 19.3287 9.5485 19.2964C9.56658 19.1864 9.5906 19.0774 9.62104 18.9696C9.62745 18.9463 9.63294 18.9231 9.64004 18.9002C9.72174 18.6339 9.83914 18.3785 9.98995 18.14L10.0019 18.1223C10.6671 19.1532 10.6671 20.4434 10.0019 21.4744L9.98995 21.4543ZM7.97971 16.6564C7.97674 16.6536 7.97559 16.6497 7.97216 16.647C7.96873 16.6442 7.95157 16.632 7.94172 16.6241C7.86758 16.5643 7.7916 16.5078 7.71379 16.4527C7.68015 16.429 7.64673 16.4061 7.61378 16.3822C7.54627 16.3356 7.47715 16.2941 7.40667 16.252C8.43376 16.623 9.5723 16.623 10.5994 16.252C10.2419 16.4644 9.91786 16.7224 9.63683 17.0186C9.63683 17.0214 9.63042 17.0222 9.62791 17.0252C9.62539 17.028 9.61189 17.0443 9.60342 17.0537C9.53934 17.1227 9.47892 17.1936 9.41988 17.2665C9.39448 17.2977 9.36999 17.3291 9.34436 17.3599C9.28898 17.4322 9.23703 17.5061 9.18645 17.5815C9.16288 17.6166 9.13999 17.6516 9.11802 17.6871C9.07798 17.751 9.03953 17.8151 9.00291 17.881C8.74591 17.4172 8.39897 17.0019 7.97971 16.6564ZM3.23034 16.9868C4.32861 16.3952 5.68135 16.3952 6.77984 16.9868L6.79723 16.997C5.68867 17.6031 4.31625 17.6031 3.20769 16.997L3.23034 16.9868ZM5.99282 13.9845C5.84223 13.746 5.7246 13.4908 5.6429 13.2247C5.63604 13.2018 5.63055 13.1781 5.62391 13.1552C5.5937 13.0475 5.56944 12.9385 5.55136 12.8285C5.54587 12.7962 5.53992 12.7639 5.53534 12.7312C5.49621 12.4632 5.49621 12.1916 5.53534 11.9236C5.53992 11.8909 5.54587 11.8586 5.55136 11.8266C5.56944 11.7165 5.5937 11.6073 5.62391 11.4998C5.63055 11.4763 5.63604 11.453 5.6429 11.4301C5.7246 11.164 5.84223 10.9086 5.99282 10.6701L6.00243 10.6524C6.6677 11.6834 6.6677 12.9734 6.00243 14.0046L5.99282 13.9845ZM6.6677 9.90075C7.18056 9.46904 7.81883 9.1895 8.50218 9.0976V9.52717C8.50218 9.78492 8.726 9.99393 9.002 9.99393C9.27822 9.99393 9.50204 9.78492 9.50204 9.52717V9.0976C10.1852 9.1895 10.8237 9.46904 11.3363 9.90075C10.2236 11.3523 10.2236 13.3044 11.3363 14.7562C10.8237 15.1877 10.1852 15.4672 9.50204 15.5591V15.1296C9.50204 14.8718 9.27822 14.6628 9.002 14.6628C8.726 14.6628 8.50218 14.8718 8.50218 15.1296V15.5591C7.81883 15.4672 7.18056 15.1877 6.6677 14.7562C7.78038 13.3044 7.78038 11.3523 6.6677 9.90075ZM12.0137 10.6718C12.1643 10.9104 12.2819 11.1657 12.3636 11.432C12.3705 11.4549 12.376 11.4786 12.3826 11.5015C12.4128 11.6092 12.4371 11.7184 12.4551 11.8283C12.4606 11.8605 12.4666 11.8928 12.4712 11.9255C12.5103 12.1935 12.5103 12.4651 12.4712 12.7332C12.4666 12.7659 12.4606 12.7981 12.4551 12.8302C12.4371 12.9402 12.4128 13.0495 12.3826 13.1572C12.376 13.1805 12.3705 13.2038 12.3636 13.2266C12.2819 13.4929 12.1643 13.7483 12.0137 13.9868L12.0016 14.0046C11.3363 12.9734 11.3363 11.6834 12.0016 10.6524L12.0137 10.6718ZM14.0239 15.4704C14.0269 15.4732 14.0278 15.4771 14.0313 15.4798C14.0349 15.4826 14.0518 15.4948 14.0619 15.5027C14.1358 15.5623 14.2118 15.619 14.2899 15.6739C14.3233 15.6978 14.3569 15.7207 14.3899 15.7444C14.4574 15.7912 14.5263 15.8327 14.5967 15.8748C13.5697 15.5038 12.4313 15.5038 11.4043 15.8748C11.7615 15.6626 12.0851 15.4048 12.3657 15.1086C12.3686 15.1058 12.3725 15.105 12.3755 15.1016C12.3785 15.0984 12.3915 15.0825 12.4 15.0731C12.4641 15.0041 12.5245 14.9332 12.5835 14.8603C12.6089 14.8289 12.6334 14.7977 12.6591 14.7669C12.7144 14.6951 12.7666 14.6207 12.8165 14.5455C12.8405 14.51 12.8634 14.4752 12.8861 14.439C12.9254 14.3756 12.9639 14.3112 13.0005 14.2458C13.2577 14.7096 13.6047 15.1249 14.0239 15.4704ZM18.7733 15.1398C17.6748 15.7314 16.3221 15.7314 15.2238 15.1398L15.2062 15.1296C16.3147 14.5237 17.6872 14.5237 18.7957 15.1296L18.7733 15.1398ZM19.2232 16.9868C20.3215 16.3952 21.6742 16.3952 22.7727 16.9868L22.7951 16.997C21.6866 17.6031 20.3142 17.6031 19.2056 16.997L19.2232 16.9868ZM15.2238 9.51692C16.3221 8.92535 17.6748 8.92535 18.7733 9.51692L18.7957 9.52717C17.6872 10.1333 16.3147 10.1333 15.2062 9.52717L15.2238 9.51692ZM14.4013 10.1487C15.9559 11.1875 18.046 11.1875 19.6006 10.1487C20.0629 10.6274 20.362 11.2235 20.4606 11.8616H20.0006C19.7244 11.8616 19.5006 12.0706 19.5006 12.3284C19.5006 12.5863 19.7244 12.7953 20.0006 12.7953H20.4606C20.362 13.4333 20.0629 14.0296 19.6006 14.5083C18.046 13.4692 15.9559 13.4692 14.4013 14.5083C13.9393 14.0296 13.6399 13.4333 13.5415 12.7953H14.0013C14.2775 12.7953 14.5013 12.5863 14.5013 12.3284C14.5013 12.0706 14.2775 11.8616 14.0013 11.8616H13.5415C13.6399 11.2235 13.9393 10.6274 14.4013 10.1487ZM14.6368 7.66997C13.5383 8.26154 12.1856 8.26154 11.0873 7.66997L11.0672 7.65971C12.1757 7.05361 13.5481 7.05361 14.6567 7.65971L14.6368 7.66997ZM11.0873 2.04685C12.1856 1.45528 13.5383 1.45528 14.6368 2.04685L14.6567 2.05818C13.5481 2.66406 12.1757 2.66406 11.0672 2.05818L11.0873 2.04685ZM9.40203 5.32527H9.86179C10.138 5.32527 10.3618 5.11626 10.3618 4.85852C10.3618 4.60056 10.138 4.39154 9.86179 4.39154H9.40203C9.50021 3.7536 9.79955 3.15732 10.2618 2.6786C11.8164 3.71748 13.9065 3.71748 15.4611 2.6786C15.9232 3.15732 16.2227 3.7536 16.3216 4.39154H15.8616C15.5856 4.39154 15.3616 4.60056 15.3616 4.85852C15.3616 5.11626 15.5856 5.32527 15.8616 5.32527H16.3216C16.223 5.96322 15.9236 6.55928 15.4616 7.03822C13.9072 5.99934 11.8169 5.99934 10.2623 7.03822C9.79978 6.55971 9.50044 5.96344 9.40203 5.32527ZM6.77732 22.6099C5.67883 23.2015 4.32609 23.2015 3.22783 22.6099L3.20769 22.5996C4.31625 21.9935 5.68867 21.9935 6.79723 22.5996L6.77732 22.6099ZM7.60211 21.9781C6.04751 20.9393 3.95741 20.9393 2.40281 21.9781C1.94076 21.4994 1.64142 20.9031 1.54302 20.2652H2.00301C2.27901 20.2652 2.50282 20.0562 2.50282 19.7984C2.50282 19.5405 2.27901 19.3315 2.00301 19.3315H1.54302C1.64142 18.6935 1.94076 18.0972 2.40281 17.6185C3.95741 18.6574 6.04751 18.6574 7.60211 17.6185C8.06439 18.0972 8.36373 18.6935 8.46213 19.3315H8.00214C7.72592 19.3315 7.5021 19.5405 7.5021 19.7984C7.5021 20.0562 7.72592 20.2652 8.00214 20.2652H8.46213C8.36373 20.9031 8.06439 21.4994 7.60211 21.9781ZM22.7752 22.6099C21.6767 23.2015 20.324 23.2015 19.2257 22.6099L19.2056 22.5996C20.3142 21.9935 21.6866 21.9935 22.7951 22.5996L22.7752 22.6099ZM23.6 21.9781C22.0457 20.9393 19.9553 20.9393 18.4007 21.9781C17.9387 21.4994 17.6393 20.9031 17.5409 20.2652H18.0009C18.2769 20.2652 18.5007 20.0562 18.5007 19.7984C18.5007 19.5405 18.2769 19.3315 18.0009 19.3315H17.5409C17.6393 18.6935 17.9387 18.0972 18.4007 17.6185C19.9553 18.6574 22.0457 18.6574 23.6 17.6185C24.0623 18.0972 24.3616 18.6935 24.46 19.3315H24.0001C23.7241 19.3315 23.5002 19.5405 23.5002 19.7984C23.5002 20.0562 23.7241 20.2652 24.0001 20.2652H24.46C24.3616 20.9031 24.0623 21.4994 23.6 21.9781Z" fill="black"/>
</svg>
